HIERARCHY
ROOT Hips
{
	OFFSET 14.658700 -1.743397 44.686901
	CHANNELS 6 Xposition Yposition Zposition Zrotation Xrotation Yrotation
	JOINT Chest
	{
		OFFSET -0.825500 0.895800 5.069500
		CHANNELS 6 Xposition Yposition Zposition Zrotation Xrotation Yrotation
		JOINT Chest2
		{
			OFFSET 0.000000 0.000000 4.622200
			CHANNELS 6 Xposition Yposition Zposition Zrotation Xrotation Yrotation
			JOINT Neck
			{
				OFFSET 0.000000 0.000001 10.755798
				CHANNELS 6 Xposition Yposition Zposition Zrotation Xrotation Yrotation
				JOINT Head
				{
					OFFSET 0.000000 0.000000 2.173897
					CHANNELS 6 Xposition Yposition Zposition Zrotation Xrotation Yrotation
					End Site
					{
						OFFSET 0.000000 0.000001 10.006599
					}
				}
			}
			JOINT LeftCollar
			{
				OFFSET 2.539400 -1.380899 6.761002
				CHANNELS 6 Xposition Yposition Zposition Zrotation Xrotation Yrotation
				JOINT LeftShoulder
				{
					OFFSET 5.407000 0.000000 0.000000
					CHANNELS 6 Xposition Yposition Zposition Zrotation Xrotation Yrotation
					JOINT LeftElbow
					{
						OFFSET 0.000000 -0.000001 -10.687000
						CHANNELS 6 Xposition Yposition Zposition Zrotation Xrotation Yrotation
						JOINT LeftWrist
						{
							OFFSET 0.000000 -0.000001 -13.346901
							CHANNELS 6 Xposition Yposition Zposition Zrotation Xrotation Yrotation
							End Site
							{
								OFFSET 0.000000 -0.000000 -2.173901
							}
						}
					}
				}
			}
			JOINT RightCollar
			{
				OFFSET -2.411400 -2.842699 7.518600
				CHANNELS 6 Xposition Yposition Zposition Zrotation Xrotation Yrotation
				JOINT RightShoulder
				{
					OFFSET -4.245500 0.000000 0.000000
					CHANNELS 6 Xposition Yposition Zposition Zrotation Xrotation Yrotation
					JOINT RightElbow
					{
						OFFSET 0.000000 -0.000001 -10.446701
						CHANNELS 6 Xposition Yposition Zposition Zrotation Xrotation Yrotation
						JOINT RightWrist
						{
							OFFSET 0.000000 -0.000001 -12.218899
							CHANNELS 6 Xposition Yposition Zposition Zrotation Xrotation Yrotation
							End Site
							{
								OFFSET 0.000000 0.000000 -2.173901
							}
						}
					}
				}
			}
		}
	}
	JOINT LeftHip
	{
		OFFSET 2.346700 0.301800 -2.502800
		CHANNELS 6 Xposition Yposition Zposition Zrotation Xrotation Yrotation
		JOINT LeftKnee
		{
			OFFSET 0.000000 -0.000002 -20.597000
			CHANNELS 6 Xposition Yposition Zposition Zrotation Xrotation Yrotation
			JOINT LeftAnkle
			{
				OFFSET 0.000000 -0.000001 -17.157499
				CHANNELS 6 Xposition Yposition Zposition Zrotation Xrotation Yrotation
				End Site
				{
					OFFSET 0.000000 -9.063900 0.000001
				}
			}
		}
	}
	JOINT RightHip
	{
		OFFSET -1.908600 -0.007900 -2.706001
		CHANNELS 6 Xposition Yposition Zposition Zrotation Xrotation Yrotation
		JOINT RightKnee
		{
			OFFSET 0.000000 -0.000002 -20.198500
			CHANNELS 6 Xposition Yposition Zposition Zrotation Xrotation Yrotation
			JOINT RightAnkle
			{
				OFFSET 0.000000 -0.000001 -17.295700
				CHANNELS 6 Xposition Yposition Zposition Zrotation Xrotation Yrotation
				End Site
				{
					OFFSET 0.000000 -8.113500 0.000001
				}
			}
		}
	}
}
MOTION
Frames: 8
Frame Time: 0.041667
51.561005 -27.465502 42.849995 -1472.316015 21.423156 -6.633351 -0.825497 0.895800 5.069509 38.107220 -34.275201 -5.136491 -0.000003 0.000006 4.622198 -19.649793 -1.307166 1.555190 0.000003 -0.000001 10.755819 33.871615 -16.065536 -3.388927 0.000005 0.000007 2.173900 -13.627856 -5.620313 20.830948 2.539402 -1.380902 6.761011 8.244852 -4.964087 -19.153387 5.407001 0.000002 -0.000001 165.041208 -146.177742 63.460264 0.000003 -0.000007 -10.687002 23.088486 3.265256 -11.091267 -0.000001 0.000003 -13.346902 -114.083734 177.703695 -200.361086 -2.411393 -2.842701 7.518609 1.938144 -4.461269 6.855431 -4.245497 0.000002 0.000003 -719.513383 -35.596866 -619.745574 0.000003 -0.000003 -10.446695 0.684197 -5.640233 -2.799402 0.000007 -0.000002 -12.218896 19.489356 2.028764 70.834840 2.346702 0.301804 -2.502795 27.533973 -32.915098 26.402330 -0.000000 0.000001 -20.597004 331.888454 46.642634 28.355319 -0.000008 -0.000007 -17.157497 -335.073836 -7.506351 15.198575 -1.908597 -0.007900 -2.705994 -151.630008 2.793130 -91.893748 0.000007 -0.000002 -20.198502 129.488215 82.552296 -38.060338 -0.000000 -0.000010 -17.295704 -17.215219 6.558051 7.896811
51.594601 -27.539597 42.820499 -1472.681129 22.238560 -6.875929 -0.825505 0.895797 5.069504 39.046484 -34.778142 -4.421254 -0.000009 0.000004 4.622202 -19.856620 -1.364066 1.561684 0.000000 0.000004 10.755812 34.067297 -16.246302 -3.356184 -0.000002 0.000006 2.173914 -13.481541 -5.751947 20.984875 2.539396 -1.380902 6.761007 8.509535 -5.126308 -19.259583 5.407000 -0.000000 0.000002 163.476930 -144.994999 62.255180 0.000002 -0.000006 -10.686995 25.225181 3.083677 -11.145165 -0.000001 -0.000005 -13.346895 -117.368058 177.841255 -200.208431 -2.411403 -2.842700 7.518605 2.027590 -4.306810 6.490767 -4.245496 -0.000002 0.000004 -720.459337 -35.635409 -620.158992 0.000000 -0.000005 -10.446704 0.942930 -5.763309 -2.857279 0.000005 -0.000003 -12.218901 19.344139 2.148994 71.027834 2.346696 0.301801 -2.502798 28.089404 -33.452583 27.202919 -0.000005 0.000002 -20.596998 332.064400 46.593095 28.310301 0.000000 -0.000002 -17.157501 -335.064601 -7.466300 15.298690 -1.908609 -0.007901 -2.706003 -151.432752 3.500021 -91.993475 0.000010 -0.000004 -20.198507 142.563246 81.610864 -50.768024 -0.000002 0.000001 -17.295702 -18.935666 6.109945 7.281251
51.630608 -27.617298 42.792797 -1472.531630 21.570613 -7.084123 -0.825490 0.895801 5.069508 38.604950 -34.320840 -4.991298 -0.000001 0.000001 4.622202 -20.081530 -1.410763 1.570536 0.000012 0.000002 10.755806 34.290835 -16.430467 -3.373544 0.000010 0.000004 2.173897 -13.344622 -5.887744 21.123002 2.539411 -1.380897 6.761003 8.878168 -5.439607 -19.928733 5.406995 0.000002 -0.000008 162.265036 -144.048963 61.851406 0.000003 -0.000003 -10.686988 27.107279 2.978638 -11.238211 0.000005 0.000003 -13.346911 -120.270643 178.170279 -199.993007 -2.411386 -2.842698 7.518606 2.131987 -4.158912 6.131315 -4.245498 0.000001 -0.000005 -721.398679 -35.600442 -620.597654 0.000004 -0.000001 -10.446697 1.513905 -5.746174 -2.770361 0.000005 -0.000001 -12.218896 18.803405 2.093976 71.178856 2.346705 0.301807 -2.502799 27.410987 -32.861546 26.991122 0.000000 0.000003 -20.597002 332.138002 46.523431 28.323541 -0.000003 -0.000005 -17.157492 -334.929473 -7.433997 15.456419 -1.908596 -0.007897 -2.705998 -151.924594 2.958944 -91.249189 0.000002 0.000001 -20.198500 151.838111 80.506627 -59.821925 -0.000000 -0.000003 -17.295704 -20.534342 5.739816 6.733119
51.671303 -27.700897 42.770100 -1472.614248 21.545115 -7.470135 -0.825491 0.895804 5.069499 38.860348 -34.176952 -4.837315 -0.000002 0.000001 4.622211 -20.314600 -1.460909 1.579805 0.000004 0.000003 10.755814 34.642040 -16.631697 -3.519500 0.000003 0.000001 2.173909 -13.301910 -5.971561 21.244064 2.539407 -1.380898 6.761006 9.358522 -5.797617 -20.158924 5.406991 -0.000001 0.000001 160.751057 -143.384782 61.011273 0.000008 -0.000001 -10.686982 28.252632 2.964498 -11.274703 0.000001 -0.000001 -13.346890 -122.191934 178.448282 -199.790342 -2.411396 -2.842697 7.518603 2.235547 -4.022565 5.780217 -4.245495 0.000002 0.000002 -722.345343 -35.524855 -621.105274 0.000002 -0.000001 -10.446701 1.579486 -5.647593 -2.814195 0.000009 -0.000001 -12.218900 18.710475 2.019974 71.466735 2.346702 0.301806 -2.502803 27.396654 -32.672944 27.410140 -0.000003 -0.000002 -20.596998 332.161498 46.471528 28.351420 0.000005 -0.000000 -17.157499 -334.786476 -7.446656 15.687025 -1.908595 -0.007897 -2.706001 -152.080090 2.647065 -91.031334 0.000004 -0.000001 -20.198500 160.260485 78.829911 -68.160746 0.000003 -0.000003 -17.295696 -22.473129 5.230493 5.961916
51.708694 -27.783703 42.744698 -1472.700363 21.451766 -7.795794 -0.825493 0.895806 5.069504 39.048075 -34.021005 -4.795277 0.000004 0.000002 4.622200 -20.532517 -1.501672 1.591423 -0.000003 0.000004 10.755799 34.928126 -16.841189 -3.651272 0.000005 0.000008 2.173903 -13.257868 -6.062878 21.300266 2.539403 -1.380897 6.760994 9.871499 -6.164660 -20.342118 5.407000 -0.000002 -0.000006 159.157546 -142.805882 60.148039 0.000010 -0.000001 -10.686983 28.771738 3.082769 -11.303184 -0.000006 -0.000002 -13.346909 -123.357301 178.707542 -199.531368 -2.411402 -2.842698 7.518593 2.311579 -3.955297 5.452560 -4.245496 -0.000003 0.000003 -723.330202 -35.364971 -621.680594 0.000000 -0.000006 -10.446699 1.438471 -5.550506 -2.877274 0.000004 0.000000 -12.218899 18.800179 1.915314 71.759484 2.346704 0.301807 -2.502799 27.309458 -32.460156 27.741739 -0.000002 -0.000000 -20.596996 332.227122 46.449422 28.364698 0.000003 -0.000000 -17.157499 -334.632605 -7.501009 15.870351 -1.908598 -0.007894 -2.706002 -152.271814 2.388921 -90.753441 0.000003 -0.000005 -20.198498 164.202911 78.017501 -72.127460 -0.000000 -0.000002 -17.295702 -23.437803 5.004827 5.624268
51.741703 -27.864697 42.717197 -1472.783090 21.312605 -8.076990 -0.825500 0.895800 5.069492 39.179758 -33.873200 -4.849603 -0.000005 -0.000003 4.622197 -20.727433 -1.497945 1.599175 0.000001 0.000005 10.755807 35.296034 -17.056543 -3.777939 0.000013 0.000000 2.173895 -13.352563 -6.193234 21.315579 2.539403 -1.380899 6.761006 10.307935 -6.451719 -20.406211 5.406999 0.000001 -0.000003 157.434658 -142.046064 59.017308 0.000002 -0.000004 -10.687005 29.264598 3.189714 -11.233509 -0.000002 0.000001 -13.346904 -124.700813 179.067630 -199.412413 -2.411402 -2.842699 7.518603 2.345984 -3.986401 5.201835 -4.245488 0.000003 -0.000010 -724.361014 -35.162159 -622.360007 0.000003 -0.000001 -10.446701 1.091650 -5.445804 -2.956085 0.000004 0.000003 -12.218899 19.132690 1.763250 72.049746 2.346698 0.301805 -2.502797 27.122336 -32.242567 27.940482 0.000002 0.000006 -20.597000 332.315915 46.414441 28.437013 -0.000005 -0.000004 -17.157501 -334.453818 -7.600180 16.029100 -1.908601 -0.007902 -2.706005 -152.508412 2.225974 -90.438706 0.000006 -0.000004 -20.198503 166.531213 77.794065 -74.508409 -0.000002 0.000002 -17.295700 -23.836868 4.924723 5.611074
51.775398 -27.948298 42.691097 -1472.868112 21.179426 -8.403432 -0.825496 0.895797 5.069498 39.336644 -33.719128 -4.879809 0.000002 0.000001 4.622194 -20.891208 -1.493449 1.618801 0.000002 -0.000002 10.755814 35.641307 -17.243844 -3.876117 -0.000003 0.000005 2.173908 -13.477937 -6.333219 21.289092 2.539406 -1.380904 6.761011 10.680522 -6.641883 -20.367558 5.407000 0.000001 -0.000005 155.846366 -141.494158 57.877630 0.000000 -0.000003 -10.686996 29.342762 3.285592 -11.180970 0.000001 0.000003 -13.346893 -125.381933 179.359606 -199.397920 -2.411399 -2.842704 7.518602 2.323364 -4.114296 5.022740 -4.245498 -0.000003 0.000002 -725.465046 -34.822224 -623.172636 0.000000 -0.000001 -10.446701 0.655888 -5.371020 -3.018821 0.000010 -0.000002 -12.218907 19.545252 1.601736 72.337953 2.346703 0.301801 -2.502798 26.926284 -31.999699 28.117049 0.000004 0.000001 -20.597000 332.590597 46.380850 28.450612 0.000001 -0.000002 -17.157492 -334.349289 -7.681392 16.072004 -1.908599 -0.007900 -2.706005 -152.741253 2.013489 -90.193481 0.000000 -0.000004 -20.198507 167.906294 78.074383 -76.049573 -0.000001 -0.000004 -17.295702 -23.745006 4.905487 5.791973
51.805599 -28.030201 42.665695 -1472.985592 21.097782 -8.685501 -0.825498 0.895802 5.069495 39.539268 -33.641704 -4.882836 -0.000006 0.000003 4.622199 -21.053889 -1.491659 1.638875 0.000002 -0.000000 10.755820 35.911004 -17.443668 -3.981829 0.000006 0.000007 2.173906 -13.599830 -6.458493 21.247735 2.539402 -1.380903 6.761013 10.934896 -6.712212 -20.307616 5.407002 0.000000 -0.000001 154.319573 -140.921201 56.624205 0.000006 -0.000005 -10.686996 28.860947 3.417093 -11.090872 -0.000005 -0.000003 -13.346913 -125.549013 179.600603 -199.415733 -2.411395 -2.842702 7.518609 2.306847 -4.207153 4.806252 -4.245502 -0.000006 0.000000 -726.580607 -34.513386 -624.015208 0.000003 -0.000001 -10.446692 0.153604 -5.246616 -3.028528 0.000008 0.000001 -12.218898 20.129121 1.434117 72.587808 2.346698 0.301803 -2.502805 26.721365 -31.812217 28.276386 0.000002 -0.000004 -20.596996 333.082535 46.386154 28.338518 0.000004 -0.000003 -17.157497 -334.346830 -7.760201 16.034127 -1.908599 -0.007896 -2.706009 -152.936159 1.893527 -89.962129 0.000005 -0.000005 -20.198509 168.941587 78.654082 -77.258640 0.000002 0.000004 -17.295702 -23.302924 4.915189 6.008849
